<mxfile host="app.diagrams.net" agent="Mozilla/5.0 (Windows NT 10.0; Win64; x64) AppleWebKit/537.36 (KHTML, like Gecko) Chrome/130.0.0.0 Safari/537.36" version="24.8.2" pages="2">
  <diagram id="C5RBs43oDa-KdzZeNtuy" name="Page-1">
    <mxGraphModel dx="1674" dy="780" grid="1" gridSize="10" guides="1" tooltips="1" connect="1" arrows="1" fold="1" page="1" pageScale="1" pageWidth="827" pageHeight="1169" math="0" shadow="0">
      <root>
        <mxCell id="WIyWlLk6GJQsqaUBKTNV-0" />
        <mxCell id="WIyWlLk6GJQsqaUBKTNV-1" parent="WIyWlLk6GJQsqaUBKTNV-0" />
        <mxCell id="t_9Ry1-iry3Em4X7XU_4-26" style="edgeStyle=orthogonalEdgeStyle;rounded=0;orthogonalLoop=1;jettySize=auto;html=1;" edge="1" parent="WIyWlLk6GJQsqaUBKTNV-1" source="t_9Ry1-iry3Em4X7XU_4-0" target="t_9Ry1-iry3Em4X7XU_4-25">
          <mxGeometry relative="1" as="geometry" />
        </mxCell>
        <mxCell id="t_9Ry1-iry3Em4X7XU_4-0" value="CLIENTES" style="rounded=0;whiteSpace=wrap;html=1;" vertex="1" parent="WIyWlLk6GJQsqaUBKTNV-1">
          <mxGeometry x="30" y="120" width="120" height="60" as="geometry" />
        </mxCell>
        <mxCell id="t_9Ry1-iry3Em4X7XU_4-27" style="edgeStyle=orthogonalEdgeStyle;rounded=0;orthogonalLoop=1;jettySize=auto;html=1;" edge="1" parent="WIyWlLk6GJQsqaUBKTNV-1" source="t_9Ry1-iry3Em4X7XU_4-39" target="t_9Ry1-iry3Em4X7XU_4-25">
          <mxGeometry relative="1" as="geometry">
            <mxPoint x="680" y="150" as="sourcePoint" />
          </mxGeometry>
        </mxCell>
        <mxCell id="t_9Ry1-iry3Em4X7XU_4-32" style="edgeStyle=orthogonalEdgeStyle;rounded=0;orthogonalLoop=1;jettySize=auto;html=1;" edge="1" parent="WIyWlLk6GJQsqaUBKTNV-1" source="t_9Ry1-iry3Em4X7XU_4-39" target="t_9Ry1-iry3Em4X7XU_4-31">
          <mxGeometry relative="1" as="geometry">
            <mxPoint x="740" y="180" as="sourcePoint" />
          </mxGeometry>
        </mxCell>
        <mxCell id="t_9Ry1-iry3Em4X7XU_4-5" style="edgeStyle=orthogonalEdgeStyle;rounded=0;orthogonalLoop=1;jettySize=auto;html=1;" edge="1" parent="WIyWlLk6GJQsqaUBKTNV-1" source="t_9Ry1-iry3Em4X7XU_4-4" target="t_9Ry1-iry3Em4X7XU_4-0">
          <mxGeometry relative="1" as="geometry" />
        </mxCell>
        <mxCell id="t_9Ry1-iry3Em4X7XU_4-4" value="iD_Cliente" style="ellipse;whiteSpace=wrap;html=1;align=center;fontStyle=4;" vertex="1" parent="WIyWlLk6GJQsqaUBKTNV-1">
          <mxGeometry x="40" y="30" width="100" height="40" as="geometry" />
        </mxCell>
        <mxCell id="t_9Ry1-iry3Em4X7XU_4-11" style="edgeStyle=orthogonalEdgeStyle;rounded=0;orthogonalLoop=1;jettySize=auto;html=1;" edge="1" parent="WIyWlLk6GJQsqaUBKTNV-1" source="t_9Ry1-iry3Em4X7XU_4-6" target="t_9Ry1-iry3Em4X7XU_4-37">
          <mxGeometry relative="1" as="geometry">
            <mxPoint x="90" y="475" as="targetPoint" />
            <Array as="points">
              <mxPoint x="90" y="400" />
            </Array>
          </mxGeometry>
        </mxCell>
        <mxCell id="t_9Ry1-iry3Em4X7XU_4-6" value="Fecha" style="ellipse;whiteSpace=wrap;html=1;align=center;" vertex="1" parent="WIyWlLk6GJQsqaUBKTNV-1">
          <mxGeometry x="20" y="545" width="100" height="40" as="geometry" />
        </mxCell>
        <mxCell id="t_9Ry1-iry3Em4X7XU_4-43" style="edgeStyle=orthogonalEdgeStyle;rounded=0;orthogonalLoop=1;jettySize=auto;html=1;" edge="1" parent="WIyWlLk6GJQsqaUBKTNV-1" source="t_9Ry1-iry3Em4X7XU_4-7" target="t_9Ry1-iry3Em4X7XU_4-37">
          <mxGeometry relative="1" as="geometry">
            <Array as="points">
              <mxPoint x="222" y="540" />
              <mxPoint x="90" y="540" />
            </Array>
          </mxGeometry>
        </mxCell>
        <mxCell id="t_9Ry1-iry3Em4X7XU_4-7" value="Num_Transaccion" style="ellipse;whiteSpace=wrap;html=1;align=center;fontStyle=4;" vertex="1" parent="WIyWlLk6GJQsqaUBKTNV-1">
          <mxGeometry x="164" y="545" width="116" height="40" as="geometry" />
        </mxCell>
        <mxCell id="t_9Ry1-iry3Em4X7XU_4-10" style="edgeStyle=orthogonalEdgeStyle;rounded=0;orthogonalLoop=1;jettySize=auto;html=1;" edge="1" parent="WIyWlLk6GJQsqaUBKTNV-1" source="t_9Ry1-iry3Em4X7XU_4-9" target="t_9Ry1-iry3Em4X7XU_4-37">
          <mxGeometry relative="1" as="geometry">
            <mxPoint x="150" y="445" as="targetPoint" />
            <Array as="points">
              <mxPoint x="140" y="470" />
              <mxPoint x="89" y="470" />
            </Array>
          </mxGeometry>
        </mxCell>
        <mxCell id="t_9Ry1-iry3Em4X7XU_4-9" value="Cantidad" style="ellipse;whiteSpace=wrap;html=1;align=center;" vertex="1" parent="WIyWlLk6GJQsqaUBKTNV-1">
          <mxGeometry x="110" y="490" width="100" height="40" as="geometry" />
        </mxCell>
        <mxCell id="t_9Ry1-iry3Em4X7XU_4-33" style="edgeStyle=orthogonalEdgeStyle;rounded=0;orthogonalLoop=1;jettySize=auto;html=1;" edge="1" parent="WIyWlLk6GJQsqaUBKTNV-1" source="t_9Ry1-iry3Em4X7XU_4-13" target="t_9Ry1-iry3Em4X7XU_4-31">
          <mxGeometry relative="1" as="geometry" />
        </mxCell>
        <mxCell id="t_9Ry1-iry3Em4X7XU_4-13" value="SUCURSAL" style="rounded=0;whiteSpace=wrap;html=1;" vertex="1" parent="WIyWlLk6GJQsqaUBKTNV-1">
          <mxGeometry x="680" y="410" width="120" height="57" as="geometry" />
        </mxCell>
        <mxCell id="t_9Ry1-iry3Em4X7XU_4-17" style="edgeStyle=orthogonalEdgeStyle;rounded=0;orthogonalLoop=1;jettySize=auto;html=1;" edge="1" parent="WIyWlLk6GJQsqaUBKTNV-1" source="t_9Ry1-iry3Em4X7XU_4-14" target="t_9Ry1-iry3Em4X7XU_4-13">
          <mxGeometry relative="1" as="geometry">
            <Array as="points">
              <mxPoint x="610" y="492" />
              <mxPoint x="740" y="492" />
            </Array>
          </mxGeometry>
        </mxCell>
        <mxCell id="t_9Ry1-iry3Em4X7XU_4-14" value="Nombre" style="ellipse;whiteSpace=wrap;html=1;align=center;" vertex="1" parent="WIyWlLk6GJQsqaUBKTNV-1">
          <mxGeometry x="560" y="507" width="100" height="40" as="geometry" />
        </mxCell>
        <mxCell id="t_9Ry1-iry3Em4X7XU_4-18" style="edgeStyle=orthogonalEdgeStyle;rounded=0;orthogonalLoop=1;jettySize=auto;html=1;" edge="1" parent="WIyWlLk6GJQsqaUBKTNV-1" source="t_9Ry1-iry3Em4X7XU_4-15" target="t_9Ry1-iry3Em4X7XU_4-13">
          <mxGeometry relative="1" as="geometry">
            <Array as="points">
              <mxPoint x="770" y="492" />
              <mxPoint x="740" y="492" />
            </Array>
          </mxGeometry>
        </mxCell>
        <mxCell id="t_9Ry1-iry3Em4X7XU_4-15" value="iD_Sucursal" style="ellipse;whiteSpace=wrap;html=1;align=center;fontStyle=4;" vertex="1" parent="WIyWlLk6GJQsqaUBKTNV-1">
          <mxGeometry x="720" y="507" width="100" height="40" as="geometry" />
        </mxCell>
        <mxCell id="t_9Ry1-iry3Em4X7XU_4-20" style="edgeStyle=orthogonalEdgeStyle;rounded=0;orthogonalLoop=1;jettySize=auto;html=1;" edge="1" parent="WIyWlLk6GJQsqaUBKTNV-1" source="t_9Ry1-iry3Em4X7XU_4-19" target="t_9Ry1-iry3Em4X7XU_4-39">
          <mxGeometry relative="1" as="geometry">
            <mxPoint x="740" y="120" as="targetPoint" />
          </mxGeometry>
        </mxCell>
        <mxCell id="t_9Ry1-iry3Em4X7XU_4-19" value="iD_Cuenta" style="ellipse;whiteSpace=wrap;html=1;align=center;fontStyle=4;" vertex="1" parent="WIyWlLk6GJQsqaUBKTNV-1">
          <mxGeometry x="610" y="40" width="100" height="40" as="geometry" />
        </mxCell>
        <mxCell id="t_9Ry1-iry3Em4X7XU_4-22" style="edgeStyle=orthogonalEdgeStyle;rounded=0;orthogonalLoop=1;jettySize=auto;html=1;" edge="1" parent="WIyWlLk6GJQsqaUBKTNV-1" source="t_9Ry1-iry3Em4X7XU_4-21" target="t_9Ry1-iry3Em4X7XU_4-39">
          <mxGeometry relative="1" as="geometry">
            <mxPoint x="740" y="120" as="targetPoint" />
            <Array as="points">
              <mxPoint x="770" y="100" />
              <mxPoint x="740" y="100" />
            </Array>
          </mxGeometry>
        </mxCell>
        <mxCell id="t_9Ry1-iry3Em4X7XU_4-21" value="Nombre_Cliente" style="ellipse;whiteSpace=wrap;html=1;align=center;" vertex="1" parent="WIyWlLk6GJQsqaUBKTNV-1">
          <mxGeometry x="720" y="30" width="100" height="40" as="geometry" />
        </mxCell>
        <mxCell id="t_9Ry1-iry3Em4X7XU_4-24" style="edgeStyle=orthogonalEdgeStyle;rounded=0;orthogonalLoop=1;jettySize=auto;html=1;" edge="1" parent="WIyWlLk6GJQsqaUBKTNV-1" source="t_9Ry1-iry3Em4X7XU_4-23" target="t_9Ry1-iry3Em4X7XU_4-0">
          <mxGeometry relative="1" as="geometry">
            <Array as="points">
              <mxPoint x="190" y="100" />
              <mxPoint x="90" y="100" />
            </Array>
          </mxGeometry>
        </mxCell>
        <mxCell id="t_9Ry1-iry3Em4X7XU_4-23" value="Nombre" style="ellipse;whiteSpace=wrap;html=1;align=center;" vertex="1" parent="WIyWlLk6GJQsqaUBKTNV-1">
          <mxGeometry x="140" y="50" width="100" height="40" as="geometry" />
        </mxCell>
        <mxCell id="t_9Ry1-iry3Em4X7XU_4-25" value="Tiene" style="shape=rhombus;perimeter=rhombusPerimeter;whiteSpace=wrap;html=1;align=center;" vertex="1" parent="WIyWlLk6GJQsqaUBKTNV-1">
          <mxGeometry x="354" y="120" width="120" height="60" as="geometry" />
        </mxCell>
        <mxCell id="t_9Ry1-iry3Em4X7XU_4-31" value="Tiene" style="shape=rhombus;perimeter=rhombusPerimeter;whiteSpace=wrap;html=1;align=center;" vertex="1" parent="WIyWlLk6GJQsqaUBKTNV-1">
          <mxGeometry x="680" y="250" width="120" height="60" as="geometry" />
        </mxCell>
        <mxCell id="t_9Ry1-iry3Em4X7XU_4-35" style="edgeStyle=orthogonalEdgeStyle;rounded=0;orthogonalLoop=1;jettySize=auto;html=1;" edge="1" parent="WIyWlLk6GJQsqaUBKTNV-1" source="t_9Ry1-iry3Em4X7XU_4-34" target="t_9Ry1-iry3Em4X7XU_4-13">
          <mxGeometry relative="1" as="geometry">
            <Array as="points">
              <mxPoint x="680" y="492" />
              <mxPoint x="740" y="492" />
            </Array>
          </mxGeometry>
        </mxCell>
        <mxCell id="t_9Ry1-iry3Em4X7XU_4-34" value="Dirección" style="ellipse;whiteSpace=wrap;html=1;align=center;" vertex="1" parent="WIyWlLk6GJQsqaUBKTNV-1">
          <mxGeometry x="630" y="557" width="100" height="40" as="geometry" />
        </mxCell>
        <mxCell id="t_9Ry1-iry3Em4X7XU_4-36" value="N:M" style="text;html=1;align=center;verticalAlign=middle;whiteSpace=wrap;rounded=0;" vertex="1" parent="WIyWlLk6GJQsqaUBKTNV-1">
          <mxGeometry x="384" y="90" width="60" height="30" as="geometry" />
        </mxCell>
        <mxCell id="t_9Ry1-iry3Em4X7XU_4-37" value="TRANSACCIONES" style="shape=ext;margin=3;double=1;whiteSpace=wrap;html=1;align=center;" vertex="1" parent="WIyWlLk6GJQsqaUBKTNV-1">
          <mxGeometry x="15" y="400" width="150" height="60" as="geometry" />
        </mxCell>
        <mxCell id="t_9Ry1-iry3Em4X7XU_4-39" value="CUENTA" style="shape=ext;margin=3;double=1;whiteSpace=wrap;html=1;align=center;" vertex="1" parent="WIyWlLk6GJQsqaUBKTNV-1">
          <mxGeometry x="680" y="120" width="120" height="60" as="geometry" />
        </mxCell>
        <mxCell id="t_9Ry1-iry3Em4X7XU_4-40" value="(1,n)" style="text;html=1;align=center;verticalAlign=middle;resizable=0;points=[];autosize=1;strokeColor=none;fillColor=none;" vertex="1" parent="WIyWlLk6GJQsqaUBKTNV-1">
          <mxGeometry x="145" y="118" width="50" height="30" as="geometry" />
        </mxCell>
        <mxCell id="t_9Ry1-iry3Em4X7XU_4-41" value="(1,n)" style="text;html=1;align=center;verticalAlign=middle;resizable=0;points=[];autosize=1;strokeColor=none;fillColor=none;" vertex="1" parent="WIyWlLk6GJQsqaUBKTNV-1">
          <mxGeometry x="635" y="118" width="50" height="30" as="geometry" />
        </mxCell>
        <mxCell id="t_9Ry1-iry3Em4X7XU_4-44" value="1:N" style="text;html=1;align=center;verticalAlign=middle;resizable=0;points=[];autosize=1;strokeColor=none;fillColor=none;" vertex="1" parent="WIyWlLk6GJQsqaUBKTNV-1">
          <mxGeometry x="630" y="265" width="40" height="30" as="geometry" />
        </mxCell>
        <mxCell id="t_9Ry1-iry3Em4X7XU_4-45" value="(1,n)" style="text;html=1;align=center;verticalAlign=middle;resizable=0;points=[];autosize=1;strokeColor=none;fillColor=none;" vertex="1" parent="WIyWlLk6GJQsqaUBKTNV-1">
          <mxGeometry x="745" y="178" width="50" height="30" as="geometry" />
        </mxCell>
        <mxCell id="t_9Ry1-iry3Em4X7XU_4-47" value="(1,1)" style="text;html=1;align=center;verticalAlign=middle;resizable=0;points=[];autosize=1;strokeColor=none;fillColor=none;" vertex="1" parent="WIyWlLk6GJQsqaUBKTNV-1">
          <mxGeometry x="755" y="380" width="50" height="30" as="geometry" />
        </mxCell>
        <mxCell id="t_9Ry1-iry3Em4X7XU_4-53" value="Relationship" style="shape=rhombus;perimeter=rhombusPerimeter;whiteSpace=wrap;html=1;align=center;" vertex="1" parent="WIyWlLk6GJQsqaUBKTNV-1">
          <mxGeometry x="340" y="280" width="120" height="60" as="geometry" />
        </mxCell>
        <mxCell id="t_9Ry1-iry3Em4X7XU_4-54" value="" style="shape=flexArrow;endArrow=classic;html=1;rounded=0;" edge="1" parent="WIyWlLk6GJQsqaUBKTNV-1" source="t_9Ry1-iry3Em4X7XU_4-37" target="t_9Ry1-iry3Em4X7XU_4-53">
          <mxGeometry width="50" height="50" relative="1" as="geometry">
            <mxPoint x="165" y="430" as="sourcePoint" />
            <mxPoint x="215" y="380" as="targetPoint" />
          </mxGeometry>
        </mxCell>
        <mxCell id="t_9Ry1-iry3Em4X7XU_4-55" value="" style="shape=flexArrow;endArrow=classic;html=1;rounded=0;" edge="1" parent="WIyWlLk6GJQsqaUBKTNV-1" source="t_9Ry1-iry3Em4X7XU_4-39" target="t_9Ry1-iry3Em4X7XU_4-53">
          <mxGeometry width="50" height="50" relative="1" as="geometry">
            <mxPoint x="473" y="265" as="sourcePoint" />
            <mxPoint x="670" y="208" as="targetPoint" />
          </mxGeometry>
        </mxCell>
      </root>
    </mxGraphModel>
  </diagram>
  <diagram id="d3woCAkwN6jJw6ramPiV" name="Página-2">
    <mxGraphModel grid="0" page="0" gridSize="10" guides="1" tooltips="1" connect="1" arrows="1" fold="1" pageScale="1" pageWidth="827" pageHeight="1169" math="0" shadow="0">
      <root>
        <mxCell id="0" />
        <mxCell id="1" parent="0" />
      </root>
    </mxGraphModel>
  </diagram>
</mxfile>
